<svg width="56" height="47" viewBox="0 0 56 47" fill="none" xmlns="http://www.w3.org/2000/svg">
<path d="M44.541 25.8834V19.7495C49.4785 19.2588 50.7129 23.6343 50.7129 25.8834H44.541Z" fill="black"/>
<path fill-rule="evenodd" clip-rule="evenodd" d="M44.6048 18.638C40.8008 18.729 37.7451 21.8412 37.7451 25.667C37.7451 29.5502 40.893 32.6981 44.7762 32.6981C48.602 32.6981 51.7142 29.6425 51.8052 25.8386H44.6048V18.638Z" fill="#1260A6"/>
<path d="M21.5762 29.6959C21.5762 28.4177 22.6124 27.3815 23.8906 27.3815C25.1689 27.3815 26.2051 28.4177 26.2051 29.6959V39.4681C26.2051 40.7463 25.1689 41.7825 23.8906 41.7825C22.6124 41.7825 21.5762 40.7463 21.5762 39.4681V29.6959Z" fill="#1260A6"/>
<path d="M13.5715 23.2639C13.5715 22.0476 14.5575 21.0616 15.7738 21.0616C16.9901 21.0616 17.9761 22.0476 17.9761 23.2639V39.7811C17.9761 40.9974 16.9901 41.9834 15.7738 41.9834C14.5575 41.9834 13.5715 40.9974 13.5715 39.7811V23.2639Z" fill="#1260A6"/>
<path d="M29.8054 23.2639C29.8054 22.0476 30.7914 21.0616 32.0077 21.0616C33.224 21.0616 34.21 22.0476 34.21 23.2639V39.7811C34.21 40.9974 33.224 41.9834 32.0077 41.9834C30.7914 41.9834 29.8054 40.9974 29.8054 39.7811V23.2639Z" fill="#1260A6"/>
<path fill-rule="evenodd" clip-rule="evenodd" d="M53.6892 11.0609H9.39258V44.9333H53.6892V11.0609ZM7.84961 9.51788V46.4762H55.2321V9.51788H7.84961Z" fill="black"/>
<path d="M0.199219 25.9138L17.2238 9.10717L23.2953 14.8433L35.0376 3.24522H30.9454V0.122437H40.7145V10.0182H36.6223V5.85253L23.2285 19.0749L17.9463 13.8663L3.23498 29.0426L0.199219 25.9138Z" fill="#1260A6"/>
</svg>
