<svg width="59" height="42" viewBox="0 0 59 42" fill="none" xmlns="http://www.w3.org/2000/svg">
<rect x="16.5093" y="2.48096" width="35.3781" height="28.3025" fill="#1260A6"/>
<path d="M7.73364 5.12244C7.73364 3.46558 9.07679 2.12244 10.7336 2.12244H46.9884C48.6453 2.12244 49.9884 3.46558 49.9884 5.12244V31.38H7.73364V5.12244Z" stroke="black" stroke-width="4"/>
<path fill-rule="evenodd" clip-rule="evenodd" d="M58.1047 38.7318H-0.000488281C-0.000488281 40.4208 1.36869 41.79 3.05767 41.79H55.0465C56.7355 41.79 58.1047 40.4208 58.1047 38.7318ZM38.609 39.8786C39.2424 39.8786 39.7559 39.3652 39.7559 38.7318H17.9664C17.9664 39.3652 18.4799 39.8786 19.1132 39.8786H38.609Z" fill="black"/>
<path d="M40.9435 15.2401L32.6638 18.3274L21.2266 13.9771L32.6638 9.55658L44.101 13.9771V20.9236" stroke="white"/>
<circle cx="44.1011" cy="22.6779" r="1.74534" stroke="white"/>
<path d="M25.2261 15.5208V20.9237L32.5936 23.6602L39.6103 20.4325V15.8015" stroke="white"/>
</svg>
