<svg width="48" height="48" viewBox="0 0 48 48" fill="none" xmlns="http://www.w3.org/2000/svg">
<path d="M12.0275 22.9986C16.432 22.9986 20.0025 19.3536 20.0025 14.8573C20.0025 10.361 16.432 6.71606 12.0275 6.71606C7.62303 6.71606 4.05249 10.361 4.05249 14.8573C4.05249 19.3536 7.62303 22.9986 12.0275 22.9986Z" fill="#1260A6"/>
<path d="M12.0278 26.0861C18.1026 26.0861 23.0273 21.0588 23.0273 14.8573C23.0273 8.65588 18.1026 3.6286 12.0278 3.6286C5.95295 3.6286 1.02832 8.65588 1.02832 14.8573C1.02832 21.0588 5.95295 26.0861 12.0278 26.0861Z" stroke="#231F20" stroke-width="2" stroke-miterlimit="10"/>
<path d="M6.02148 24.2662V23.2803C6.02148 20.0845 8.55778 17.4954 11.6884 17.4954H12.6434C15.774 17.4954 18.3103 20.0845 18.3103 23.2803V24.0658" stroke="#231F20" stroke-width="2" stroke-miterlimit="10"/>
<path d="M12.0276 17.0727C13.7097 17.0727 15.0733 15.6807 15.0733 13.9636C15.0733 12.2464 13.7097 10.8544 12.0276 10.8544C10.3455 10.8544 8.98193 12.2464 8.98193 13.9636C8.98193 15.6807 10.3455 17.0727 12.0276 17.0727Z" stroke="#231F20" stroke-width="2" stroke-miterlimit="10"/>
<path d="M13.1477 16.8506L13.1424 16.856C12.9618 17.062 12.7918 17.2735 12.6272 17.4957" stroke="#231F20" stroke-width="2" stroke-miterlimit="10" stroke-dasharray="1.54 1.54"/>
<path d="M22.4331 11.2172C22.6933 11.163 22.9536 11.1143 23.2138 11.071" stroke="#231F20" stroke-width="2" stroke-miterlimit="10"/>
<path d="M24.7148 10.8923C25.1022 10.8652 25.4948 10.849 25.8875 10.849C34.7804 10.849 42.0604 17.9232 42.6175 26.8661" stroke="#231F20" stroke-width="2" stroke-miterlimit="10" stroke-dasharray="2.85 2.85"/>
<path d="M42.6491 27.6407C42.6491 27.7491 42.6544 27.8576 42.6544 27.966C42.6544 28.1232 42.6544 28.2913 42.6438 28.454" stroke="#231F20" stroke-width="2" stroke-miterlimit="10"/>
<path d="M9.27413 25.7396C9.23695 26.0052 9.20508 26.2762 9.18384 26.5473" stroke="#231F20" stroke-width="2" stroke-miterlimit="10"/>
<path d="M9.125 28.1878C9.23643 37.537 16.702 45.0824 25.8921 45.0824C26.5872 45.0824 27.2717 45.0391 27.9403 44.9524" stroke="#231F20" stroke-width="2" stroke-miterlimit="10" stroke-dasharray="3.03 3.03"/>
<path d="M28.7361 44.8331C28.9963 44.7843 29.2619 44.7356 29.5168 44.6761" stroke="#231F20" stroke-width="2" stroke-miterlimit="10"/>
<path d="M45.4213 11.2702H42.0366V7.9633H39.5272V11.2702H36.1619V13.6435H39.5272V16.9504H42.0366V13.6435H45.4213V11.2702Z" fill="black"/>
<path d="M25.7319 38.633H22.3471V35.3261H19.8377V38.633H16.4724V41.0063H19.8377V44.3132H22.3471V41.0063H25.7319V38.633Z" fill="black"/>
<path d="M39.6819 39.4852V45.0796C39.6819 45.8112 40.4418 46.2951 41.1048 45.9857L45.926 43.7358C46.2781 43.5715 46.5031 43.2182 46.5031 42.8296V36.5924C46.5031 35.8151 45.6552 35.335 44.9887 35.7349L40.1674 38.6277C39.8662 38.8084 39.6819 39.1339 39.6819 39.4852Z" fill="#1260A6"/>
<path fill-rule="evenodd" clip-rule="evenodd" d="M31.0415 35.6106C31.0415 34.6215 32.1295 34.0185 32.9682 34.5427L39.2648 38.4781C39.633 38.7082 39.8567 39.1118 39.8567 39.546V45.9714C39.8567 46.9433 38.8024 47.5489 37.9628 47.0592L31.6663 43.3862C31.2794 43.1605 31.0415 42.7463 31.0415 42.2984V35.6106ZM38.5974 39.546L32.3008 35.6106V42.2984L38.5974 45.9714V39.546Z" fill="black"/>
<path fill-rule="evenodd" clip-rule="evenodd" d="M47.4124 35.6106C47.4124 34.6215 46.3244 34.0185 45.4856 34.5427L39.1891 38.4781C38.8209 38.7082 38.5972 39.1118 38.5972 39.546V45.9714C38.5972 46.9433 39.6515 47.5489 40.491 47.0592L46.7876 43.3862C47.1745 43.1605 47.4124 42.7463 47.4124 42.2984V35.6106ZM39.8565 39.546L46.153 35.6106V42.2984L39.8565 45.9714V39.546Z" fill="black"/>
<path fill-rule="evenodd" clip-rule="evenodd" d="M32.3401 33.3613C31.4835 33.8558 31.5053 35.0996 32.3787 35.5638L38.9351 39.0491C39.3185 39.2529 39.7798 39.2449 40.1558 39.0278L45.7204 35.815C46.5621 35.3291 46.5594 34.1132 45.7156 33.6311L39.3864 30.0146C38.9975 29.7924 38.5198 29.7934 38.132 30.0174L32.3401 33.3613ZM39.5262 37.9372L32.9698 34.4519L38.7616 31.108L45.0908 34.7245L39.5262 37.9372Z" fill="black"/>
</svg>
