<svg width="51" height="50" viewBox="0 0 51 50" fill="none" xmlns="http://www.w3.org/2000/svg">
<path d="M25.8614 44.1731C34.9276 44.1731 42.2772 36.813 42.2772 27.7339C42.2772 18.6548 34.9276 11.2947 25.8614 11.2947C16.7952 11.2947 9.44556 18.6548 9.44556 27.7339C9.44556 36.813 16.7952 44.1731 25.8614 44.1731Z" fill="#1260A6"/>
<path d="M38.4649 48.0816C44.4868 48.0816 49.3686 43.1929 49.3686 37.1624C49.3686 31.1319 44.4868 26.2433 38.4649 26.2433C32.443 26.2433 27.5613 31.1319 27.5613 37.1624C27.5613 43.1929 32.443 48.0816 38.4649 48.0816Z" stroke="#231F20" stroke-width="2" stroke-miterlimit="10"/>
<path d="M32.51 46.3135V45.3566C32.51 42.249 35.0247 39.7308 38.1278 39.7308H39.0783C42.1815 39.7308 44.6961 42.249 44.6961 45.3566V46.1221" stroke="#231F20" stroke-width="2" stroke-miterlimit="10"/>
<path d="M38.465 39.318C40.1344 39.318 41.4876 37.9628 41.4876 36.2911C41.4876 34.6194 40.1344 33.2642 38.465 33.2642C36.7956 33.2642 35.4424 34.6194 35.4424 36.2911C35.4424 37.9628 36.7956 39.318 38.465 39.318Z" stroke="#231F20" stroke-width="2" stroke-miterlimit="10"/>
<path d="M12.7147 48.0816C18.7366 48.0816 23.6183 43.1929 23.6183 37.1624C23.6183 31.1319 18.7366 26.2433 12.7147 26.2433C6.69276 26.2433 1.81104 31.1319 1.81104 37.1624C1.81104 43.1929 6.69276 48.0816 12.7147 48.0816Z" stroke="#231F20" stroke-width="2" stroke-miterlimit="10"/>
<path d="M6.76001 46.3135V45.3566C6.76001 42.249 9.27469 39.7308 12.3778 39.7308H13.3283C16.4315 39.7308 18.9461 42.249 18.9461 45.3566V46.1221" stroke="#231F20" stroke-width="2" stroke-miterlimit="10"/>
<path d="M12.7148 39.318C14.3841 39.318 15.7374 37.9628 15.7374 36.2911C15.7374 34.6194 14.3841 33.2642 12.7148 33.2642C11.0454 33.2642 9.69214 34.6194 9.69214 36.2911C9.69214 37.9628 11.0454 39.318 12.7148 39.318Z" stroke="#231F20" stroke-width="2" stroke-miterlimit="10"/>
<path d="M25.9417 22.8384C31.9636 22.8384 36.8454 17.9497 36.8454 11.9192C36.8454 5.88869 31.9636 1 25.9417 1C19.9198 1 15.0381 5.88869 15.0381 11.9192C15.0381 17.9497 19.9198 22.8384 25.9417 22.8384Z" stroke="#231F20" stroke-width="2" stroke-miterlimit="10"/>
<path d="M19.9922 21.0657V20.1087C19.9922 17.0011 22.5069 14.4828 25.61 14.4828H26.5605C29.6636 14.4828 32.1783 17.0011 32.1783 20.1087V20.8743" stroke="#231F20" stroke-width="2" stroke-miterlimit="10"/>
<path d="M25.9421 14.0698C27.6114 14.0698 28.9647 12.7146 28.9647 11.0429C28.9647 9.37113 27.6114 8.01593 25.9421 8.01593C24.2727 8.01593 22.9194 9.37113 22.9194 11.0429C22.9194 12.7146 24.2727 14.0698 25.9421 14.0698Z" stroke="#231F20" stroke-width="2" stroke-miterlimit="10"/>
<path d="M21.0383 30.1163L25.9419 27.4922V22.8334" stroke="#231F20" stroke-width="2" stroke-miterlimit="10"/>
<path d="M25.9419 27.4922L30.3426 29.8897" stroke="#231F20" stroke-width="2" stroke-miterlimit="10"/>
</svg>
